<svg width="841" height="841" viewBox="0 0 841 841" fill="none" xmlns="http://www.w3.org/2000/svg">
<path d="M431.691 841C657.746 841 841.001 824.841 841.001 804.907C841.001 784.974 657.746 768.814 431.691 768.814C205.635 768.814 22.3801 784.974 22.3801 804.907C22.3801 824.841 205.635 841 431.691 841Z" fill="url(#paint0_radial_102_76)"/>
<path d="M391.956 174.289C542.322 116.031 706.764 162.039 781.433 232.484C797.613 247.746 811.354 263.23 823.122 278.619C829.834 242.487 830.38 206.497 823.922 171.691C800.328 44.608 677.258 -27.3868 566.926 9.80229C457.092 46.8246 414.252 118.78 414.252 118.78C414.252 118.78 371.413 46.8246 261.578 9.80229C151.238 -27.3868 28.1678 44.616 4.5829 171.691C-12.8285 265.479 20.143 367.87 90.1067 458.352C104.843 463.174 120.289 466.797 136.649 468.887C234.658 481.439 269.888 455.905 311.293 438.808C338.784 427.463 359.465 440.341 358.462 449.367C356.905 463.357 302.713 487.263 314.334 492.284C360.216 512.114 416.715 512.281 459.293 476.855C512.205 432.842 531.997 462.928 531.997 462.928C531.997 462.928 505.721 528.226 426.599 560.648C360.583 587.7 291.41 594.365 228.199 587.437C282.717 624.976 345.316 656.445 414.252 678.905C611.339 614.68 756.935 477.094 808.263 333.247C773.49 299.824 730.838 279.104 679.998 271.596C582.258 257.16 546.522 282.019 504.775 298.314C477.056 309.135 456.643 295.859 457.834 286.85C459.669 272.891 514.341 250.034 502.818 244.783C457.352 224.079 400.861 222.824 357.573 257.423C303.782 300.411 284.6 269.951 284.6 269.951C284.6 269.951 312.19 205.186 391.956 174.289ZM354.548 353.275H392.518V316.285H435.97V353.275H473.94V395.605H435.97V432.595H392.518V395.605H354.548V353.275Z" fill="url(#paint1_linear_102_76)"/>
<path d="M354.548 353.275H392.518V316.284H435.969V353.275H473.94V395.604H436.255C492.24 423.165 595.061 464.167 718.621 482.408C759.283 435.55 789.857 384.808 808.255 333.246C773.481 299.823 730.829 279.103 679.99 271.596C582.25 257.16 546.513 282.019 504.767 298.314C477.047 309.134 456.635 295.859 457.825 286.849C459.66 272.891 514.333 250.034 502.81 244.782C457.344 224.078 400.853 222.823 357.565 257.422C303.773 300.411 284.592 269.951 284.592 269.951C284.592 269.951 312.189 205.178 391.947 174.273C542.313 116.014 706.755 162.022 781.424 232.468C797.604 247.73 811.346 263.214 823.114 278.603C829.826 242.47 830.372 206.481 823.913 171.675C800.32 44.5917 677.25 -27.4032 566.918 9.78593C457.083 46.8082 414.244 118.763 414.244 118.763C414.244 118.763 371.404 46.8082 261.57 9.78593C198.555 -11.4582 131.404 2.96941 80.9889 42.8836C104.672 92.2837 132.416 138.442 211.448 231.276C275.703 306.767 354.548 353.275 354.548 353.275Z" fill="url(#paint2_linear_102_76)"/>
<path opacity="0.31" d="M699.954 55.4676C596.195 4.68506 489.109 83.703 455.142 125.429C513.721 113.408 564.977 107.243 629.835 120.519C725.781 140.158 761.689 173.907 804.528 223.768C796.96 131.379 737.06 73.6292 699.954 55.4676Z" fill="url(#paint3_linear_102_76)"/>
<defs>
<radialGradient id="paint0_radial_102_76" cx="0" cy="0" r="1" gradientUnits="userSpaceOnUse" gradientTransform="translate(431.694 804.946) scale(399.468 32.4945)">
<stop stop-color="#CDCDCD"/>
<stop offset="1" stop-color="white" stop-opacity="0"/>
</radialGradient>
<linearGradient id="paint1_linear_102_76" x1="110.423" y1="545.247" x2="703.291" y2="-63.3302" gradientUnits="userSpaceOnUse">
<stop stop-color="#0076C1"/>
<stop offset="0.0737" stop-color="#0B82C6"/>
<stop offset="0.2766" stop-color="#269ED3"/>
<stop offset="0.4546" stop-color="#36AFDA"/>
<stop offset="0.587" stop-color="#3CB5DD"/>
</linearGradient>
<linearGradient id="paint2_linear_102_76" x1="108.349" y1="546.59" x2="702.99" y2="-63.8077" gradientUnits="userSpaceOnUse">
<stop stop-color="#00A482"/>
<stop offset="1" stop-color="#79DD83"/>
</linearGradient>
<linearGradient id="paint3_linear_102_76" x1="616.549" y1="185.201" x2="740.104" y2="67.837" gradientUnits="userSpaceOnUse">
<stop stop-color="#00A482"/>
<stop offset="1" stop-color="#79DD83"/>
</linearGradient>
</defs>
</svg>
